PathFileType	4	(X/Y/Z)	./resultDataOpenSim/trcMotMarkerGrf/sub10/qtm-04-03.trc
DataRate	CameraRate	NumFrames	NumMarkers	Units	OrigDataRate	OrigDataStartFrame	OrigNumFrames
250.000000	250.000000	12	24	m	250.000000	128	508
Frame#	Time	L.Toe.Tip			R.Toe.Tip			L.Ankle.Lat			R.Ankle.Lat			L.Ankle.Med			R.Ankle.Med			L.Heel			R.Heel			L.Knee.Lat			R.Knee.Lat			L.Knee.Med			R.Knee.Med			L.Thigh.Upper			R.Thigh.Upper			L.ASIS			R.ASIS			V.Sacral			L.Acromium			R.Acromium			C7			L.Elbow			R.Elbow			L.Wrist.Lat			R.Wrist.Lat
		X1	Y1	Z1	X2	Y2	Z2	X3	Y3	Z3	X4	Y4	Z4	X5	Y5	Z5	X6	Y6	Z6	X7	Y7	Z7	X8	Y8	Z8	X9	Y9	Z9	X10	Y10	Z10	X11	Y11	Z11	X12	Y12	Z12	X13	Y13	Z13	X14	Y14	Z14	X15	Y15	Z15	X16	Y16	Z16	X17	Y17	Z17	X18	Y18	Z18	X19	Y19	Z19	X20	Y20	Z20	X21	Y21	Z21	X22	Y22	Z22	X23	Y23	Z23	X24	Y24	Z24

128	0.508	-0.59774659	0.07248776	-0.20846794	-0.73458372	0.039004142	-0.037576995	-0.71549962	0.138321	-0.21280187	-0.87962992	0.052319783	-0.0080096985	-0.69271841	0.14709966	-0.13173196	-0.85565045	0.081716193	-0.091581674	-0.78042407	0.12293432	-0.15898803	-0.92550827	0.029650053	-0.059123918	-0.55091532	0.48856055	-0.21926529	-0.78142275	0.44466234	0.047086948	-0.53261137	0.45897558	-0.10136885	-0.77243099	0.45060513	-0.083254587	-0.70668328	0.82950354	-0.2680787	-0.74992454	0.8599047	0.1118515	-0.66207915	0.94097066	-0.20012736	-0.67045075	0.95001226	0.044506198	-0.86668589	0.96113476	-0.090072832	-0.72063679	1.4181515	-0.23990876	-0.74445288	1.4160378	0.082075312	-0.81255227	1.4445078	-0.086220634	-0.82691149	1.0941165	-0.31569962	-0.80673095	1.0717688	0.15437056	-0.69921325	0.88334492	-0.32151155	-0.65012713	0.89030333	0.21050331
129	0.512	-0.57946766	0.071723978	-0.20665347	-0.7345997	0.03904198	-0.037504043	-0.69889445	0.13429455	-0.21149684	-0.8794619	0.052389485	-0.0081869471	-0.67677692	0.14387594	-0.13034058	-0.85558905	0.081764972	-0.091560751	-0.76391098	0.11717155	-0.15834475	-0.92545881	0.029767675	-0.059459265	-0.54343427	0.48920343	-0.2183181	-0.78075047	0.44440545	0.047116682	-0.52497079	0.45993277	-0.10028473	-0.77107791	0.45031654	-0.083035108	-0.7002452	0.82971999	-0.26777163	-0.74655992	0.85933651	0.11197851	-0.65623928	0.94086406	-0.19936361	-0.66645694	0.94928393	0.045408277	-0.86273098	0.96067807	-0.091901866	-0.71554394	1.4177803	-0.23946962	-0.73954535	1.4158261	0.082484892	-0.80745926	1.4441708	-0.085844614	-0.82373362	1.0945733	-0.3158559	-0.79937551	1.0710404	0.15545844	-0.69767809	0.8827281	-0.32243879	-0.64012723	0.89145967	0.21051754
130	0.516	-0.56114685	0.071021531	-0.20474427	-0.73459347	0.039068477	-0.037447585	-0.68214437	0.13028829	-0.21019168	-0.87933641	0.052484072	-0.0083550017	-0.66059402	0.14073463	-0.12885818	-0.8554505	0.081815472	-0.091511848	-0.7472689	0.11139237	-0.15790035	-0.9255037	0.029805065	-0.059322667	-0.53600146	0.48965562	-0.21736379	-0.77990843	0.4441067	0.04714225	-0.5173732	0.4607348	-0.099119155	-0.76973158	0.45005469	-0.08286272	-0.69383895	0.82986027	-0.26755041	-0.7431566	0.85872418	0.11209282	-0.65049406	0.94067976	-0.19862776	-0.66242398	0.94852727	0.046284786	-0.8585311	0.96018778	-0.093491659	-0.71035293	1.4173529	-0.23902929	-0.73461143	1.4155579	0.082898531	-0.80234748	1.4437872	-0.08546155	-0.82045162	1.0949297	-0.31613261	-0.7920148	1.0702736	0.15652716	-0.69609025	0.88209325	-0.3233389	-0.63010187	0.89260157	0.21047587
131	0.52	-0.54284238	0.070380314	-0.2027218	-0.73455704	0.039088708	-0.037396211	-0.66525058	0.12631669	-0.20891881	-0.87931485	0.052565836	-0.0084369514	-0.64422254	0.13770387	-0.12738646	-0.85532864	0.081857459	-0.091487705	-0.73033346	0.10570265	-0.15741367	-0.92565404	0.029831573	-0.058925697	-0.5286518	0.48992447	-0.21643799	-0.77876657	0.44378322	0.047237353	-0.50988754	0.46136732	-0.097938314	-0.7684235	0.44980244	-0.082752302	-0.68744512	0.82991513	-0.26737037	-0.73971606	0.85807844	0.11218921	-0.6448158	0.94042702	-0.19791356	-0.65836569	0.94775668	0.047135258	-0.85411391	0.95967908	-0.094870988	-0.70512696	1.41687	-0.238593	-0.72964798	1.4152278	0.083313574	-0.79722437	1.4433482	-0.085079483	-0.81689656	1.0951856	-0.31635978	-0.78464985	1.0694687	0.15757572	-0.69451948	0.88143472	-0.32421755	-0.62003885	0.89372258	0.21036904
132	0.524	-0.52457982	0.069789205	-0.20057504	-0.73447454	0.039121776	-0.037328628	-0.64829531	0.1224066	-0.20771667	-0.87937691	0.052621883	-0.0084440471	-0.62784984	0.13477494	-0.12600046	-0.85524863	0.081886456	-0.091506834	-0.7130398	0.10017964	-0.15668863	-0.92583391	0.029935213	-0.058812785	-0.52141857	0.49002452	-0.21557393	-0.77735666	0.44344974	0.047392481	-0.50265082	0.46183904	-0.096872056	-0.76719651	0.44953174	-0.082733409	-0.68101736	0.82989148	-0.26716176	-0.73623505	0.85741131	0.11226294	-0.63917864	0.94011657	-0.19721584	-0.65432506	0.94696665	0.047957394	-0.84946293	0.95914849	-0.0960347	-0.69998877	1.4163299	-0.23817812	-0.72464261	1.4148271	0.083715623	-0.79209513	1.4428466	-0.084701218	-0.81314987	1.0953883	-0.31648131	-0.77728212	1.0686257	0.15860315	-0.69297913	0.88074939	-0.3250771	-0.60998806	0.89482476	0.21020479
133	0.528	-0.50633658	0.069242008	-0.19829289	-0.7343603	0.039186403	-0.037237771	-0.63140761	0.11857058	-0.20662548	-0.87942762	0.052668569	-0.0084597086	-0.61157701	0.13194969	-0.12467862	-0.8551599	0.081903781	-0.09155638	-0.69548103	0.094849477	-0.15572611	-0.92597497	0.030123522	-0.059186071	-0.51432056	0.48996637	-0.21476984	-0.77576294	0.4431136	0.047559348	-0.49576612	0.462156	-0.096018979	-0.76602374	0.44923583	-0.08280219	-0.67452611	0.82980029	-0.26690003	-0.73270509	0.85672905	0.11231728	-0.63351934	0.93975407	-0.19652722	-0.65036617	0.94613547	0.048746994	-0.84455691	0.95856653	-0.096975065	-0.6949766	1.4157245	-0.23778717	-0.71960147	1.4143512	0.08410041	-0.78695809	1.4422877	-0.084320823	-0.80955336	1.0955834	-0.31671341	-0.7699175	1.0677472	0.15960706	-0.69144011	0.8800368	-0.32591282	-0.60003656	0.89591546	0.21000395
134	0.532	-0.48809807	0.068733979	-0.19585808	-0.7342611	0.039281239	-0.037152321	-0.61458397	0.11482123	-0.20563508	-0.87943847	0.052715532	-0.0085057271	-0.59534491	0.12926231	-0.12335267	-0.85499797	0.08191139	-0.091621896	-0.67779155	0.089710873	-0.15462735	-0.92605901	0.030319735	-0.059736123	-0.50737076	0.48974928	-0.21401042	-0.77405095	0.44276891	0.047695081	-0.48921224	0.46231402	-0.095362331	-0.7647231	0.44895792	-0.082861779	-0.66796323	0.82964899	-0.26660833	-0.7291171	0.85602968	0.11235436	-0.62770265	0.93933937	-0.19582606	-0.64650346	0.945251	0.049497336	-0.83943309	0.95789466	-0.097715628	-0.68999375	1.4150497	-0.23740078	-0.71454803	1.4138059	0.084481521	-0.78180937	1.4416819	-0.083933327	-0.80631713	1.0957944	-0.31717102	-0.76256303	1.0668353	0.16058307	-0.68987488	0.87929699	-0.32671955	-0.59022011	0.89699835	0.20977944
135	0.536	-0.46988135	0.068241766	-0.19326853	-0.73421844	0.039375884	-0.037111684	-0.59767567	0.11118605	-0.2046751	-0.87946123	0.052757339	-0.0085404635	-0.57908409	0.12671863	-0.12199416	-0.85475614	0.081909513	-0.091703499	-0.66004419	0.084768867	-0.15348997	-0.92609526	0.030460243	-0.060141764	-0.50055704	0.48936964	-0.21330227	-0.77226884	0.44240112	0.047776967	-0.48288328	0.46230855	-0.094807891	-0.76310913	0.44874644	-0.082804076	-0.66133781	0.82943993	-0.26631285	-0.72547313	0.85531201	0.1123749	-0.62163764	0.9388703	-0.1950924	-0.64259542	0.94433956	0.050202886	-0.83409909	0.95711128	-0.098209402	-0.68493152	1.41431	-0.23700545	-0.70948983	1.4132041	0.084872722	-0.77664848	1.441031	-0.083539374	-0.80325311	1.0960115	-0.31762848	-0.75521415	1.0658867	0.16153041	-0.68827403	0.87852878	-0.32749615	-0.58048477	0.89807133	0.2095242
136	0.54	-0.45171617	0.067730062	-0.19054769	-0.73422905	0.039434494	-0.037118278	-0.58053686	0.1076975	-0.20365844	-0.87951232	0.052794983	-0.0085676109	-0.56279868	0.12427019	-0.12063293	-0.85450031	0.081900406	-0.09180057	-0.64231159	0.080059818	-0.15243262	-0.92610301	0.030544551	-0.060353399	-0.49381368	0.48883362	-0.21267041	-0.7704429	0.44200131	0.047802095	-0.47667792	0.46213758	-0.09426962	-0.76123295	0.44858254	-0.082648127	-0.65468761	0.82916712	-0.26601742	-0.72178998	0.85458455	0.11239036	-0.61542874	0.93834276	-0.19433655	-0.63842608	0.94344995	0.050865891	-0.82854583	0.95621623	-0.098420756	-0.67976153	1.4135129	-0.23660568	-0.70440727	1.4125559	0.085270082	-0.77147908	1.4403311	-0.083140999	-0.79996028	1.0961903	-0.31774969	-0.74785266	1.0648918	0.16245413	-0.6866432	0.87773093	-0.3282443	-0.57074829	0.89912938	0.20922246
137	0.544	-0.43361774	0.067179812	-0.18771379	-0.73426102	0.039445064	-0.037145733	-0.56315526	0.10436968	-0.20253753	-0.87955729	0.052839965	-0.0086339846	-0.54652227	0.12187734	-0.11930979	-0.85430574	0.081888919	-0.091895449	-0.62465878	0.07562059	-0.15154785	-0.92610203	0.030602493	-0.060459593	-0.48704684	0.48815348	-0.21213441	-0.76857311	0.44157067	0.047780251	-0.47054222	0.46179917	-0.093710683	-0.75927936	0.44840274	-0.082490646	-0.6480741	0.82881966	-0.26571257	-0.71808505	0.85385727	0.1124168	-0.60929163	0.93775253	-0.19359025	-0.63395805	0.94259886	0.051495633	-0.82284509	0.95523359	-0.098489056	-0.67451279	1.4126619	-0.23620675	-0.6992792	1.4118592	0.085658076	-0.76630167	1.4395791	-0.082735199	-0.79619469	1.0962888	-0.3174004	-0.74046536	1.0638423	0.16335829	-0.68498991	0.8769059	-0.32896843	-0.56097443	0.90016569	0.20886644
138	0.548	-0.41558434	0.066581532	-0.18476376	-0.73429621	0.039417314	-0.037179391	-0.54567194	0.1011846	-0.2013342	-0.87958171	0.052899364	-0.008751072	-0.53027945	0.11955648	-0.11804289	-0.85418408	0.081876031	-0.09197531	-0.60707856	0.071463187	-0.15082619	-0.92610342	0.030656623	-0.060533274	-0.48020394	0.48733568	-0.21168531	-0.7666505	0.44111318	0.047725386	-0.46446735	0.46129086	-0.093138245	-0.75729886	0.44816796	-0.082377055	-0.64153792	0.82839342	-0.26539379	-0.71436249	0.85312557	0.11245357	-0.60331347	0.93710113	-0.19286871	-0.62937531	0.94175538	0.052099929	-0.81714342	0.95420888	-0.098682217	-0.66923753	1.4117544	-0.23580684	-0.69410686	1.4110993	0.08602754	-0.76110768	1.4387713	-0.082311708	-0.79208914	1.0963051	-0.31677235	-0.73305656	1.0627375	0.16424122	-0.68331388	0.87605754	-0.32967346	-0.55118217	0.90117378	0.20845819
139	0.552	-0.39762425	0.065905975	-0.18170068	-0.73433309	0.039365283	-0.037217871	-0.5282426	0.098122716	-0.20010627	-0.87960034	0.05296895	-0.0088882066	-0.51408734	0.11735909	-0.11683143	-0.85408361	0.081858186	-0.092051065	-0.58955534	0.067610599	-0.1502449	-0.92610838	0.030714768	-0.060602929	-0.47332137	0.48637784	-0.2112793	-0.76466937	0.44063117	0.04764821	-0.45846848	0.46060958	-0.092577794	-0.75520836	0.44786541	-0.08230682	-0.63506547	0.82789228	-0.26506524	-0.71061469	0.85237407	0.11247929	-0.59739981	0.93639658	-0.19215769	-0.62485764	0.9408818	0.052678889	-0.81155233	0.95317408	-0.099187203	-0.6639991	1.4107853	-0.23540681	-0.68891084	1.4102608	0.086383359	-0.75588949	1.4379027	-0.081869537	-0.78802627	1.0962675	-0.31623332	-0.72563905	1.0615816	0.16509911	-0.68161137	0.87518685	-0.3303572	-0.54140954	0.90215062	0.20800128
